<svg xmlns="http://www.w3.org/2000/svg" width="192" height="192" viewBox="0 0 192 192">
  <rect width="192" height="192" rx="32" fill="#0A1628"/>
  <rect x="16" y="16" width="160" height="160" rx="24" fill="#0F213A" stroke="#00C896" stroke-width="2" opacity="0.5"/>
  <path d="M96 40 L130 70 L130 120 C130 130 115 145 96 155 C77 145 62 130 62 120 L62 70 Z" 
    fill="none" stroke="#00C896" stroke-width="4" stroke-linejoin="round"/>
  <path d="M96 50 L124 75 L124 118 C124 126 111 139 96 148 C81 139 68 126 68 118 L68 75 Z" 
    fill="url(#shieldGrad)" opacity="0.3"/>
  <path d="M85 105 L93 113 L110 90" stroke="#00C896" stroke-width="5" stroke-linecap="round" stroke-linejoin="round" fill="none"/>
  <text x="96" y="172" text-anchor="middle" font-family="Inter,sans-serif" font-weight="800" font-size="16" fill="#00C896">TD</text>
  <defs>
    <linearGradient id="shieldGrad" x1="62" y1="40" x2="130" y2="155">
      <stop offset="0%" stop-color="#00C896"/>
      <stop offset="100%" stop-color="#0A84FF"/>
    </linearGradient>
  </defs>
</svg>
